<svg xmlns="http://www.w3.org/2000/svg" viewBox="0 0 300 300" width="300" height="300">
  <defs>
    <linearGradient id="bgHustle" x1="0" y1="0" x2="100%" y2="100%">
      <stop offset="0%" stop-color="#180d2b"/>
      <stop offset="50%" stop-color="#3b0764"/>
      <stop offset="100%" stop-color="#09090b"/>
    </linearGradient>
    <linearGradient id="neonText" x1="0" y1="0" x2="100%" y2="0%">
      <stop offset="0%" stop-color="#f43f5e"/>
      <stop offset="50%" stop-color="#eab308"/>
      <stop offset="100%" stop-color="#06b6d4"/>
    </linearGradient>
  </defs>
  <rect width="300" height="300" fill="url(#bgHustle)"/>
  
  <!-- Neon Graffiti Splatters -->
  <path d="M30 60 Q 70 20 120 50 T 220 30 T 280 80" stroke="#ec4899" stroke-width="8" fill="none" opacity="0.4"/>
  <path d="M10 210 Q 80 180 140 220 T 260 190" stroke="#06b6d4" stroke-width="12" fill="none" opacity="0.35"/>
  <circle cx="230" cy="90" r="45" fill="#facc15" opacity="0.25" filter="blur(10px)"/>
  <circle cx="70" cy="180" r="55" fill="#ec4899" opacity="0.25" filter="blur(10px)"/>

  <!-- MTV Block Logo -->
  <rect x="30" y="70" width="60" height="48" rx="6" fill="#000" stroke="#facc15" stroke-width="3"/>
  <text x="60" y="104" font-family="Impact, Arial Black, sans-serif" font-size="28" font-weight="900" fill="#facc15" text-anchor="middle">MTV</text>

  <!-- Big Typography HUSTLE 5 -->
  <text x="30" y="155" font-family="Impact, Arial Black, sans-serif" font-size="44" font-style="italic" fill="url(#neonText)" letter-spacing="2">HUSTLE 5</text>
  <rect x="30" y="172" width="240" height="6" fill="#ec4899" rx="3"/>
  <text x="30" y="210" font-family="-apple-system, BlinkMacSystemFont, sans-serif" font-size="16" font-weight="900" fill="#ffffff" letter-spacing="1">~ ALL SONGS ~</text>
  <text x="30" y="235" font-family="-apple-system, BlinkMacSystemFont, sans-serif" font-size="14" font-weight="700" fill="#a1a1aa" letter-spacing="2">ALL EPISODES</text>

  <rect x="30" y="255" width="90" height="24" rx="12" fill="#f43f5e"/>
  <text x="75" y="271" font-family="-apple-system, BlinkMacSystemFont, sans-serif" font-size="11" font-weight="800" fill="#fff" text-anchor="middle">RAP HITS</text>
</svg>